<?xml version="1.0" encoding="UTF-8"?>
<svg id="Layer_2" data-name="Layer 2" xmlns="http://www.w3.org/2000/svg" viewBox="0 0 481 480.99">
  <defs>
    <style>
      .cls-1 {
        fill: #ffe771;
        stroke-width: 0px;
      }
    </style>
  </defs>
  <g id="Layer_3" data-name="Layer 3">
    <path class="cls-1" d="m481,19.87V0h-19.88v14.87h-9.88V0h-64.5v14.87h-9.88V0H104.12v14.87h-9.88V0H29.75v14.87h-9.88V0H0v19.87h14.88v9.87H0v64.48h14.88v9.9H0v272.75h14.88v9.9H0v64.48h14.88v9.88H0v19.88h19.88v-14.88h9.88v14.88h64.5v-14.88h9.88v14.88h272.75v-14.88h9.88v14.88h64.5v-14.88h9.88v14.88h19.88v-19.88h-14.88v-9.88h14.88v-64.48h-14.88v-9.9h14.88V104.12h-14.88v-9.9h14.88V29.75h-14.88v-9.87h14.88Zm-14.88-14.88h9.88v9.88h-9.88V5Zm-14.88,29.75h9.88v9.88h-9.88v-9.88Zm-5,9.88h-9.88v-9.88h9.88v9.88Zm5,19.87h9.88v9.88h-9.88v-9.88Zm9.88,59.5v233h-14.88v29.75h-14.88v29.75h-14.88v14.88h-29.75v14.87h-29.75v14.88H124v-14.88h-29.75v-14.87h-29.75v-14.88h-14.88v-29.75h-14.88v-29.75h-14.88V124h14.88v-29.75h14.88v-29.75h14.88v-14.87h29.75v-14.88h29.75v-14.87h233v14.87h29.75v14.88h29.75v14.87h14.88v29.75h14.88v29.75h14.88Zm-14.88,307.37h-9.88v-9.88h9.88v9.88Zm14.88,14.87h-9.88v-9.87h9.88v9.87Zm-14.88,0h-9.88v-9.87h9.88v9.87Zm-9.88,14.88v-9.88h9.88v9.88h-9.88Zm-14.88-24.75h9.88v9.87h-9.88v-9.87Zm9.88-5h-9.88v-9.88h9.88v9.88Zm-366.88,19.87h9.88v9.88h-9.88v-9.88Zm-29.75-5v-9.87h9.88v9.87h-9.88Zm9.88,5v9.88h-9.88v-9.88h9.88Zm-14.88-5h-9.88v-9.87h9.88v9.87Zm0-29.75h-9.88v-9.88h9.88v9.88Zm29.75,14.88h-9.88v-9.88h9.88v9.88Zm-14.88,0h-9.88v-9.88h9.88v9.88Zm5,5h9.88v9.87h-9.88v-9.87ZM34.75,49.62h9.88v9.87h-9.88v-9.87Zm-14.88-14.88h9.88v9.88h-9.88v-9.88Zm14.88,0h9.88v9.88h-9.88v-9.88Zm9.88-14.87v9.87h-9.88v-9.87h9.88Zm14.88,24.75h-9.88v-9.88h9.88v9.88Zm-9.88,5h9.88v9.87h-9.88v-9.87Zm366.88-19.88h-9.88v-9.87h9.88v9.87Zm14.88,29.75h-9.88v-9.87h9.88v9.87Zm-9.88-14.87v-9.88h9.88v9.88h-9.88Zm14.88,5h9.88v9.87h-9.88v-9.87Zm0-19.88v-9.87h9.88v9.87h-9.88ZM34.75,5h54.5v14.88h19.88V5h262.75v14.88h19.88V5h54.5v9.88h-14.88v14.87h-9.88v-14.87h-19.88v19.87h14.88v9.88h-24.75v-14.88h-29.75v-14.87H119v14.87h-29.75v14.88h-24.75v-9.88h14.88V14.87h-19.88v14.87h-9.88v-14.87h-14.88V5Zm29.75,24.75v-9.87h9.88v9.87h-9.88ZM5,14.87V5h9.88v9.88H5Zm14.88,5h9.88v9.87h-9.88v-9.87ZM5,446.24v-54.48h14.88v-19.9H5V109.12h14.88v-19.9H5v-54.48h9.88v14.88h14.88v9.87h-14.88v19.88h19.88v-14.88h9.88v24.75h-14.88v29.75h-14.88v243h14.88v29.75h14.88v24.75h-9.88v-14.88H14.88v19.88h14.88v9.88h-14.88v14.87H5ZM29.75,64.5v9.88h-9.88v-9.88h9.88Zm-14.88,411.49H5v-9.88h9.88v9.88Zm5-24.75h9.88v9.88h-9.88v-9.88Zm426.38,24.75h-54.5v-14.88h-19.88v14.88H109.12v-14.88h-19.88v14.88h-54.5v-9.88h14.88v-14.88h9.88v14.88h19.88v-19.88h-14.88v-9.87h24.75v14.87h29.75v14.88h243v-14.88h29.75v-14.87h24.75v9.87h-14.88v19.88h19.88v-14.88h9.88v14.88h14.88v9.88Zm-29.75-24.75v9.88h-9.88v-9.88h9.88Zm59.5,14.88v9.88h-9.88v-9.88h9.88Zm-14.88-5h-9.88v-9.88h9.88v9.88Zm14.88-426.37v54.48h-14.88v19.9h14.88v262.75h-14.88v19.9h14.88v54.48h-9.88v-14.87h-14.88v-9.88h14.88v-19.88h-19.88v14.88h-9.88v-24.75h14.88v-29.75h14.88V119h-14.88v-29.75h-14.88v-24.75h9.88v14.88h19.88v-19.88h-14.88v-9.87h14.88v-14.88h9.88Zm-24.75,381.74v-9.88h9.88v9.88h-9.88Zm9.88-386.74h-9.88v-9.87h9.88v9.87Z"/>
  </g>
</svg>